<svg width="24" height="25" viewBox="0 0 24 25" fill="none" xmlns="http://www.w3.org/2000/svg">
<path d="M22 7.75H16C15.8015 7.74869 15.6115 7.66925 15.4711 7.52888C15.3307 7.38851 15.2513 7.19851 15.25 7C15.2513 6.80149 15.3307 6.61149 15.4711 6.47112C15.6115 6.33075 15.8015 6.25131 16 6.25H22C22.1985 6.25131 22.3885 6.33075 22.5289 6.47112C22.6693 6.61149 22.7487 6.80149 22.75 7C22.7487 7.19851 22.6693 7.38851 22.5289 7.52888C22.3885 7.66925 22.1985 7.74869 22 7.75Z" fill="#F79E1B"/>
<path d="M6 7.75H2C1.80149 7.74869 1.61149 7.66925 1.47112 7.52888C1.33075 7.38851 1.25131 7.19851 1.25 7C1.25131 6.80149 1.33075 6.61149 1.47112 6.47112C1.61149 6.33075 1.80149 6.25131 2 6.25H6C6.19851 6.25131 6.38851 6.33075 6.52888 6.47112C6.66925 6.61149 6.74869 6.80149 6.75 7C6.74869 7.19851 6.66925 7.38851 6.52888 7.52888C6.38851 7.66925 6.19851 7.74869 6 7.75Z" fill="#F79E1B"/>
<path d="M10 11.25C9.15943 11.25 8.33774 11.0007 7.63883 10.5337C6.93992 10.0668 6.39519 9.40299 6.07351 8.62641C5.75184 7.84982 5.66768 6.99529 5.83166 6.17087C5.99565 5.34645 6.40042 4.58917 6.9948 3.9948C7.58917 3.40042 8.34645 2.99565 9.17087 2.83166C9.99529 2.66768 10.8498 2.75184 11.6264 3.07351C12.403 3.39519 13.0668 3.93992 13.5337 4.63883C14.0007 5.33774 14.25 6.15943 14.25 7C14.2476 8.12644 13.7991 9.20606 13.0026 10.0026C12.2061 10.7991 11.1264 11.2476 10 11.25ZM10 4.25C9.4561 4.25 8.92442 4.41129 8.47218 4.71346C8.01995 5.01563 7.66747 5.44513 7.45933 5.94762C7.25119 6.45012 7.19673 7.00305 7.30284 7.5365C7.40895 8.06995 7.67086 8.55995 8.05546 8.94455C8.44005 9.32914 8.93006 9.59105 9.4635 9.69716C9.99695 9.80327 10.5499 9.74881 11.0524 9.54067C11.5549 9.33253 11.9844 8.98006 12.2865 8.52782C12.5887 8.07558 12.75 7.5439 12.75 7C12.7503 6.63879 12.6793 6.28108 12.5412 5.94731C12.4031 5.61355 12.2005 5.31029 11.9451 5.05487C11.6897 4.79946 11.3865 4.5969 11.0527 4.4588C10.7189 4.32069 10.3612 4.24974 10 4.25Z" fill="#F79E1B"/>
<path d="M22 18.75H18C17.8015 18.7487 17.6115 18.6693 17.4711 18.5289C17.3307 18.3885 17.2513 18.1985 17.25 18C17.2513 17.8015 17.3307 17.6115 17.4711 17.4711C17.6115 17.3307 17.8015 17.2513 18 17.25H22C22.1985 17.2513 22.3885 17.3307 22.5289 17.4711C22.6693 17.6115 22.7487 17.8015 22.75 18C22.7487 18.1985 22.6693 18.3885 22.5289 18.5289C22.3885 18.6693 22.1985 18.7487 22 18.75Z" fill="#F79E1B"/>
<path d="M8 18.75H2C1.80149 18.7487 1.61149 18.6693 1.47112 18.5289C1.33075 18.3885 1.25131 18.1985 1.25 18C1.25131 17.8015 1.33075 17.6115 1.47112 17.4711C1.61149 17.3307 1.80149 17.2513 2 17.25H8C8.19851 17.2513 8.38851 17.3307 8.52888 17.4711C8.66925 17.6115 8.74869 17.8015 8.75 18C8.74869 18.1985 8.66925 18.3885 8.52888 18.5289C8.38851 18.6693 8.19851 18.7487 8 18.75Z" fill="#F79E1B"/>
<path d="M14 22.25C13.1594 22.25 12.3377 22.0007 11.6388 21.5337C10.9399 21.0668 10.3952 20.403 10.0735 19.6264C9.75184 18.8498 9.66768 17.9953 9.83166 17.1709C9.99565 16.3464 10.4004 15.5892 10.9948 14.9948C11.5892 14.4004 12.3464 13.9957 13.1709 13.8317C13.9953 13.6677 14.8498 13.7518 15.6264 14.0735C16.403 14.3952 17.0668 14.9399 17.5337 15.6388C18.0007 16.3377 18.25 17.1594 18.25 18C18.2476 19.1264 17.7991 20.2061 17.0026 21.0026C16.2061 21.7991 15.1264 22.2476 14 22.25ZM14 15.25C13.4561 15.25 12.9244 15.4113 12.4722 15.7135C12.0199 16.0156 11.6675 16.4451 11.4593 16.9476C11.2512 17.4501 11.1967 18.0031 11.3028 18.5365C11.409 19.0699 11.6709 19.56 12.0555 19.9445C12.4401 20.3291 12.9301 20.5911 13.4635 20.6972C13.997 20.8033 14.5499 20.7488 15.0524 20.5407C15.5549 20.3325 15.9844 19.9801 16.2865 19.5278C16.5887 19.0756 16.75 18.5439 16.75 18C16.7503 17.6388 16.6793 17.2811 16.5412 16.9473C16.4031 16.6135 16.2005 16.3103 15.9451 16.0549C15.6897 15.7995 15.3865 15.5969 15.0527 15.4588C14.7189 15.3207 14.3612 15.2497 14 15.25Z" fill="#F79E1B"/>
</svg>
