<svg width="64" height="64" viewBox="0 0 64 64" fill="none" xmlns="http://www.w3.org/2000/svg">
<path d="M62.0159 16.32C62.011 11.617 58.1999 7.80563 53.4969 7.80038H10.4403C5.73692 7.80538 1.9253 11.6168 1.91992 16.32V48.7079C1.92555 53.4111 5.73705 57.2223 10.4403 57.2275H53.4969C58.1998 57.2219 62.0107 53.4106 62.0159 48.7079V16.32ZM4.47992 48.7079V45.9354L21.4264 28.992L32.5119 40.0736L15.8975 54.6656H10.4403C7.15092 54.6621 4.48492 51.9971 4.47992 48.7079ZM19.7759 54.6675L31.2594 44.5805L27.2965 54.6675H19.7759ZM53.4975 54.6675H30.0467L35.4752 40.8505L44.0319 32.2918L59.4559 47.7158V48.7103C59.4513 51.9991 56.7858 54.6639 53.4969 54.6674H53.4975V54.6675ZM10.4403 10.3604H53.4969C56.7868 10.3639 59.4528 13.0301 59.4559 16.32V44.096L44.9394 29.5764C44.4395 29.0766 43.6293 29.0766 43.1295 29.5764L34.3814 38.3239L22.3315 26.274C21.8234 25.7941 21.029 25.7941 20.521 26.274L4.47992 42.3155V16.32C4.4838 13.0299 7.15017 10.3639 10.4403 10.3604Z" fill="#B9B9B9"/>
<path d="M33.5556 29.7926C36.7177 29.7926 39.281 27.2293 39.281 24.0671C39.281 20.905 36.7176 18.3416 33.5556 18.3416C30.3947 18.3416 27.832 20.903 27.8301 24.0639C27.8322 27.2258 30.3938 29.7888 33.5556 29.7926ZM33.5556 20.9018C35.3038 20.9018 36.7211 22.319 36.7211 24.0673C36.7211 25.8155 35.3038 27.2328 33.5556 27.2328C31.8073 27.2328 30.3901 25.8155 30.3901 24.0673C30.3901 24.0661 30.3901 24.0651 30.3901 24.064C30.394 22.3179 31.8095 20.9039 33.5556 20.9018Z" fill="#B9B9B9"/>
</svg>
